<svg width="108" height="47" viewBox="0 0 108 47" fill="none" xmlns="http://www.w3.org/2000/svg">
<path d="M73.5099 34V18.7927H76.4628V21.5093L82.2209 18.4679V21.657L76.4628 24.5213V34H73.5099ZM91.567 34.2658C86.9015 34.2658 83.86 30.8404 83.86 26.4111C83.86 21.9227 86.931 18.5269 91.5375 18.5269C95.9964 18.5269 98.8016 22.0408 98.8016 26.0568V27.4446H86.8424C87.2263 30.3384 89.1752 31.6082 91.567 31.6082C93.9884 31.6082 95.5534 30.1317 96.0259 28.8029L98.2996 30.0136C97.65 31.6968 95.583 34.2658 91.567 34.2658ZM86.931 24.9642H95.7306C95.7011 23.0743 94.1065 21.1254 91.508 21.1254C89.2638 21.1254 87.433 22.4542 86.931 24.9642ZM103.761 34.2658C102.55 34.2658 101.605 33.3208 101.605 32.1102C101.605 30.8995 102.55 29.9546 103.761 29.9546C104.971 29.9546 105.916 30.8995 105.916 32.1102C105.916 33.3208 104.971 34.2658 103.761 34.2658Z" fill="white"/>
<path d="M1.80126 34V13.3298H9.39016C11.5753 13.3298 13.4651 13.7728 15.0597 14.6586C16.6739 15.5445 17.924 16.765 18.8098 18.3202C19.7154 19.8754 20.1682 21.657 20.1682 23.6649C20.1682 25.6729 19.7154 27.4545 18.8098 29.0096C17.924 30.5648 16.6739 31.7853 15.0597 32.6712C13.4651 33.5571 11.5753 34 9.39016 34H1.80126ZM6.76209 29.866H9.27204C10.4138 29.866 11.4276 29.6199 12.3135 29.1277C13.2191 28.6159 13.9277 27.8974 14.4396 26.9721C14.9514 26.0469 15.2073 24.9445 15.2073 23.6649C15.2073 22.3853 14.9514 21.2829 14.4396 20.3577C13.9277 19.4325 13.2191 18.7238 12.3135 18.2316C11.4276 17.7198 10.4138 17.4639 9.27204 17.4639H6.76209V29.866ZM28.7887 34.3543C27.4501 34.3543 26.2689 34.0098 25.2453 33.3208C24.2216 32.6318 23.4243 31.7066 22.8534 30.5451C22.2826 29.364 21.9971 28.0352 21.9971 26.5587C21.9971 25.0232 22.3318 23.6551 23.0011 22.4542C23.6704 21.2337 24.6153 20.2691 25.8359 19.5604C27.0761 18.8517 28.5328 18.4974 30.2061 18.4974C31.8991 18.4974 33.3362 18.8517 34.5173 19.5604C35.7182 20.2494 36.6335 21.2042 37.2635 22.4247C37.9131 23.6255 38.2379 24.974 38.2379 26.4702V34H33.7496V31.5786H33.6315C33.3559 32.1102 33.0015 32.5925 32.5684 33.0255C32.1353 33.439 31.6038 33.7638 30.9739 34C30.3636 34.2362 29.6352 34.3543 28.7887 34.3543ZM30.1471 30.3975C30.8361 30.3975 31.4365 30.2302 31.9483 29.8955C32.4798 29.5412 32.8834 29.0588 33.159 28.4486C33.4346 27.8383 33.5724 27.1592 33.5724 26.4111C33.5724 25.6827 33.4346 25.0232 33.159 24.4327C32.8834 23.8421 32.4798 23.3795 31.9483 23.0448C31.4365 22.6905 30.8361 22.5133 30.1471 22.5133C29.4384 22.5133 28.8183 22.6905 28.2867 23.0448C27.7552 23.3795 27.3517 23.8421 27.0761 24.4327C26.8005 25.0232 26.6627 25.6827 26.6627 26.4111C26.6627 27.1592 26.8005 27.8383 27.0761 28.4486C27.3517 29.0588 27.7552 29.5412 28.2867 29.8955C28.8183 30.2302 29.4384 30.3975 30.1471 30.3975ZM47.1741 34C45.7764 34 44.6838 33.6063 43.8964 32.8188C43.109 32.0117 42.7152 30.929 42.7152 29.5707V15.1606H47.3217V29.3049C47.3217 29.5412 47.4005 29.7479 47.558 29.925C47.7351 30.0825 47.9418 30.1613 48.1781 30.1613H51.4853V34H47.1741ZM40.2348 22.6019V18.8517H51.4853V22.6019H40.2348ZM59.8459 34.3543C58.5072 34.3543 57.3261 34.0098 56.3024 33.3208C55.2788 32.6318 54.4815 31.7066 53.9106 30.5451C53.3397 29.364 53.0542 28.0352 53.0542 26.5587C53.0542 25.0232 53.3889 23.6551 54.0582 22.4542C54.7275 21.2337 55.6725 20.2691 56.893 19.5604C58.1332 18.8517 59.59 18.4974 61.2633 18.4974C62.9562 18.4974 64.3933 18.8517 65.5745 19.5604C66.7753 20.2494 67.6907 21.2042 68.3206 22.4247C68.9703 23.6255 69.2951 24.974 69.2951 26.4702V34H64.8067V31.5786H64.6886C64.413 32.1102 64.0586 32.5925 63.6256 33.0255C63.1925 33.439 62.661 33.7638 62.031 34C61.4207 34.2362 60.6924 34.3543 59.8459 34.3543ZM61.2042 30.3975C61.8932 30.3975 62.4936 30.2302 63.0055 29.8955C63.537 29.5412 63.9405 29.0588 64.2161 28.4486C64.4917 27.8383 64.6295 27.1592 64.6295 26.4111C64.6295 25.6827 64.4917 25.0232 64.2161 24.4327C63.9405 23.8421 63.537 23.3795 63.0055 23.0448C62.4936 22.6905 61.8932 22.5133 61.2042 22.5133C60.4955 22.5133 59.8754 22.6905 59.3439 23.0448C58.8124 23.3795 58.4088 23.8421 58.1332 24.4327C57.8576 25.0232 57.7198 25.6827 57.7198 26.4111C57.7198 27.1592 57.8576 27.8383 58.1332 28.4486C58.4088 29.0588 58.8124 29.5412 59.3439 29.8955C59.8754 30.2302 60.4955 30.3975 61.2042 30.3975Z" fill="white"/>
</svg>
