<svg width="131" height="40" viewBox="0 0 131 40" fill="none" xmlns="http://www.w3.org/2000/svg">
<path d="M11.5162 31.3543C5.2266 31.3543 1.15162 26.9841 1.15162 20.222C1.15162 13.519 5.37424 9.0601 11.6934 9.0601C16.8019 9.0601 20.6111 12.0425 21.3493 16.6785H17.3629C16.6247 14.1686 14.4691 12.6921 11.6048 12.6921C7.61843 12.6921 5.10848 15.586 5.10848 20.1925C5.10848 24.7694 7.64796 27.7223 11.6048 27.7223C14.5282 27.7223 16.7724 26.1868 17.481 23.795H21.4084C20.5816 28.3424 16.6247 31.3543 11.5162 31.3543ZM23.4101 23.6769C23.4101 19.1294 26.6878 15.9994 31.2057 15.9994C35.7236 15.9994 39.0013 19.1294 39.0013 23.6769C39.0013 28.2243 35.7236 31.3543 31.2057 31.3543C26.6878 31.3543 23.4101 28.2243 23.4101 23.6769ZM27.0126 23.6769C27.0126 26.3345 28.7253 28.1357 31.2057 28.1357C33.6861 28.1357 35.3988 26.3345 35.3988 23.6769C35.3988 21.0193 33.6861 19.218 31.2057 19.218C28.7253 19.218 27.0126 21.0193 27.0126 23.6769ZM45.4593 31H41.8568V16.4128H45.1641L45.4593 18.1254C46.1976 16.9148 47.674 15.9698 49.7706 15.9698C51.9852 15.9698 53.5207 17.0624 54.2885 18.7455C55.0267 17.0624 56.7393 15.9698 58.954 15.9698C62.4975 15.9698 64.4464 18.0959 64.4464 21.4622V31H60.8734V22.4071C60.8734 20.3106 59.7513 19.218 58.0386 19.218C56.2964 19.218 54.9676 20.3401 54.9676 22.7319V31H51.3651V22.3776C51.3651 20.3401 50.2725 19.2475 48.5599 19.2475C46.8472 19.2475 45.4593 20.3696 45.4593 22.7319V31ZM72.2941 9.41445V27.5156H81.3299V31H68.5144V9.41445H72.2941ZM88.2127 31.3839C85.1121 31.3839 83.2223 29.5826 83.2223 26.8364C83.2223 24.1493 85.1712 22.4662 88.6261 22.2004L92.9963 21.8756V21.5508C92.9963 19.5724 91.8152 18.7751 89.9844 18.7751C87.8583 18.7751 86.6772 19.6609 86.6772 21.1964H83.6062C83.6062 18.0369 86.2047 15.9698 90.1616 15.9698C94.0889 15.9698 96.5103 18.0959 96.5103 22.1414V31H93.3507L93.0849 28.8444C92.4648 30.3504 90.4864 31.3839 88.2127 31.3839ZM89.3938 28.6672C91.6085 28.6672 93.0259 27.3384 93.0259 25.0942V24.3265L89.9844 24.5627C87.7402 24.7694 86.8839 25.5076 86.8839 26.6888C86.8839 28.0176 87.7697 28.6672 89.3938 28.6672ZM103.386 31H100.049V9.03058H103.652V18.5388C104.597 16.9148 106.546 15.9403 108.76 15.9403C112.924 15.9403 115.463 19.1885 115.463 23.795C115.463 28.2834 112.717 31.3839 108.524 31.3839C106.339 31.3839 104.479 30.4094 103.622 28.7263L103.386 31ZM103.681 23.6473C103.681 26.2754 105.305 28.0766 107.786 28.0766C110.325 28.0766 111.831 26.2459 111.831 23.6473C111.831 21.0488 110.325 19.1885 107.786 19.1885C105.305 19.1885 103.681 21.0193 103.681 23.6473ZM117.21 26.5707H120.635C120.665 27.8404 121.609 28.6377 123.263 28.6377C124.946 28.6377 125.862 27.9585 125.862 26.8955C125.862 26.1573 125.478 25.6258 124.179 25.3305L121.55 24.7104C118.922 24.1198 117.653 22.8796 117.653 20.5468C117.653 17.6825 120.074 15.9698 123.44 15.9698C126.718 15.9698 128.933 17.8597 128.962 20.6945H125.537C125.507 19.4542 124.68 18.657 123.293 18.657C121.875 18.657 121.048 19.3066 121.048 20.3992C121.048 21.226 121.698 21.7575 122.938 22.0528L125.566 22.6729C128.017 23.2339 129.257 24.356 129.257 26.6002C129.257 29.5531 126.748 31.3839 123.145 31.3839C119.513 31.3839 117.21 29.435 117.21 26.5707Z" fill="white"/>
</svg>
